<?xml version="1.0" encoding="UTF-8" standalone="no"?>
<!DOCTYPE svg PUBLIC "-//W3C//DTD SVG 1.1//EN"
 "http://www.w3.org/Graphics/SVG/1.1/DTD/svg11.dtd">
<!-- Generated by graphviz version 2.30.1 (20201013.1554)
 -->
<!-- Title: D Pages: 1 -->
<svg width="832pt" height="200pt"
 viewBox="0.00 0.00 832.00 200.00" xmlns="http://www.w3.org/2000/svg" xmlns:xlink="http://www.w3.org/1999/xlink">
<g id="graph0" class="graph" transform="scale(1 1) rotate(0) translate(4 196)">
<title>D</title>
<polygon fill="white" stroke="white" points="-4,5 -4,-196 829,-196 829,5 -4,5"/>
<g id="clust2" class="cluster"><title>cluster_rep1</title>
<polygon fill="honeydew" stroke="darkgrey" stroke-width="0.5" stroke-dasharray="5,2" points="8,-27 8,-184 638,-184 638,-27 8,-27"/>
<text text-anchor="middle" x="36" y="-172.8" font-family="Times,serif" font-size="9.00">Replicate 1</text>
</g>
<!-- 5055197247084690416 -->
<g id="node1" class="node"><title>5055197247084690416</title>
<g id="a_node1"><a xlink:href="atac.bam2ta" xlink:title="atac.bam2ta" target="blank">
<polygon fill="lightcyan" stroke="darkgrey" stroke-width="0.5" points="374,-88 320,-88 320,-70 374,-70 374,-88"/>
<text text-anchor="middle" x="347" y="-76.8" font-family="Times,serif" font-size="9.00">bam2ta</text>
</a>
</g>
</g>
<!-- 454569835605706935 -->
<g id="node2" class="node"><title>454569835605706935</title>
<g id="a_node2"><a xlink:href="/costellolab/data3/sermare/ATAC_seq/atac/46e1c956-3914-4b73-af06-03cafb167c20/call-bam2ta/shard-0/execution/glob-199637d3015dccbe277f621a18be9eb4/1A_S16_L003_R1_001.trim.srt.nodup.no_chrM_MT.tn5.tagAlign.gz" xlink:title="/costellolab/data3/sermare/ATAC_seq/atac/46e1c956&#45;3914&#45;4b73&#45;af06&#45;03cafb167c20/call&#45;bam2ta/shard&#45;0/execution/glob&#45;199637d3015dccbe277f621a18be9eb4/1A_S16_L003_R1_001.trim.srt.nodup.no_chrM_MT.tn5.tagAlign.gz" target="blank">
<path fill="lightyellow" stroke="darkgrey" stroke-width="0.5" d="M447.5,-92C447.5,-92 402.5,-92 402.5,-92 399.5,-92 396.5,-89 396.5,-86 396.5,-86 396.5,-80 396.5,-80 396.5,-77 399.5,-74 402.5,-74 402.5,-74 447.5,-74 447.5,-74 450.5,-74 453.5,-77 453.5,-80 453.5,-80 453.5,-86 453.5,-86 453.5,-89 450.5,-92 447.5,-92"/>
<text text-anchor="middle" x="425" y="-80.8" font-family="Times,serif" font-size="9.00">TAG&#45;ALIGN</text>
</a>
</g>
</g>
<!-- 5055197247084690416&#45;&gt;454569835605706935 -->
<g id="edge1" class="edge"><title>5055197247084690416&#45;&gt;454569835605706935</title>
<path fill="none" stroke="darkgrey" stroke-width="0.5" d="M374.155,-80.3766C379.612,-80.6638 385.431,-80.9701 391.097,-81.2682"/>
<polygon fill="darkgrey" stroke="darkgrey" points="391.156,-83.0237 396.241,-81.539 391.34,-79.5286 391.156,-83.0237"/>
</g>
<!-- &#45;8267993548484073920 -->
<g id="node21" class="node"><title>&#45;8267993548484073920</title>
<g id="a_node21"><a xlink:href="atac.reproducibility_idr" xlink:title="atac.reproducibility_idr" target="blank">
<polygon fill="lightcyan" stroke="darkgrey" stroke-width="0.5" points="735.5,-168 660.5,-168 660.5,-150 735.5,-150 735.5,-168"/>
<text text-anchor="middle" x="698" y="-156.8" font-family="Times,serif" font-size="9.00">reproducibility_idr</text>
</a>
</g>
</g>
<!-- 454569835605706935&#45;&gt;&#45;8267993548484073920 -->
<g id="edge2" class="edge"><title>454569835605706935&#45;&gt;&#45;8267993548484073920</title>
<path fill="none" stroke="darkgrey" stroke-width="0.5" d="M433.097,-92.3452C441.965,-103.389 458.16,-121.577 476,-132 531.547,-164.455 608.28,-166.122 655.172,-163.315"/>
<polygon fill="darkgrey" stroke="darkgrey" points="655.3,-165.061 660.177,-162.992 655.074,-161.568 655.3,-165.061"/>
</g>
<!-- &#45;8408257614897313588 -->
<g id="node3" class="node"><title>&#45;8408257614897313588</title>
<g id="a_node3"><a xlink:href="atac.macs2_signal_track" xlink:title="atac.macs2_signal_track" target="blank">
<polygon fill="lightcyan" stroke="darkgrey" stroke-width="0.5" points="554,-92 476,-92 476,-74 554,-74 554,-92"/>
<text text-anchor="middle" x="515" y="-80.8" font-family="Times,serif" font-size="9.00">macs2_signal_track</text>
</a>
</g>
</g>
<!-- 454569835605706935&#45;&gt;&#45;8408257614897313588 -->
<g id="edge3" class="edge"><title>454569835605706935&#45;&gt;&#45;8408257614897313588</title>
<path fill="none" stroke="darkgrey" stroke-width="0.5" d="M453.844,-83C459.164,-83 464.85,-83 470.525,-83"/>
<polygon fill="darkgrey" stroke="darkgrey" points="470.722,-84.7501 475.722,-83 470.722,-81.2501 470.722,-84.7501"/>
</g>
<!-- 770674250724286009 -->
<g id="node18" class="node"><title>770674250724286009</title>
<g id="a_node18"><a xlink:href="atac.reproducibility_overlap" xlink:title="atac.reproducibility_overlap" target="blank">
<polygon fill="lightcyan" stroke="darkgrey" stroke-width="0.5" points="743.5,-70 652.5,-70 652.5,-52 743.5,-52 743.5,-70"/>
<text text-anchor="middle" x="698" y="-58.8" font-family="Times,serif" font-size="9.00">reproducibility_overlap</text>
</a>
</g>
</g>
<!-- 454569835605706935&#45;&gt;770674250724286009 -->
<g id="edge4" class="edge"><title>454569835605706935&#45;&gt;770674250724286009</title>
<path fill="none" stroke="darkgrey" stroke-width="0.5" d="M442.204,-73.8618C477.66,-55.0191 564.809,-14.9844 638,-32 652.397,-35.3469 667.326,-42.7286 678.564,-49.2066"/>
<polygon fill="darkgrey" stroke="darkgrey" points="677.948,-50.8751 683.143,-51.9131 679.729,-47.8622 677.948,-50.8751"/>
</g>
<!-- &#45;304987781103750817 -->
<g id="node6" class="node"><title>&#45;304987781103750817</title>
<g id="a_node6"><a xlink:href="atac.call_peak" xlink:title="atac.call_peak" target="blank">
<polygon fill="lightcyan" stroke="darkgrey" stroke-width="0.5" points="542,-128 488,-128 488,-110 542,-110 542,-128"/>
<text text-anchor="middle" x="515" y="-116.8" font-family="Times,serif" font-size="9.00">call_peak</text>
</a>
</g>
</g>
<!-- 454569835605706935&#45;&gt;&#45;304987781103750817 -->
<g id="edge5" class="edge"><title>454569835605706935&#45;&gt;&#45;304987781103750817</title>
<path fill="none" stroke="darkgrey" stroke-width="0.5" d="M448.206,-92.0843C459.983,-96.9021 474.547,-102.86 486.976,-107.945"/>
<polygon fill="darkgrey" stroke="darkgrey" points="486.511,-109.645 491.801,-109.919 487.836,-106.406 486.511,-109.645"/>
</g>
<!-- 5070900776933635984 -->
<g id="node5" class="node"><title>5070900776933635984</title>
<g id="a_node5"><a xlink:href="/costellolab/data3/sermare/ATAC_seq/atac/46e1c956-3914-4b73-af06-03cafb167c20/call-macs2_signal_track/shard-0/execution/glob-8876d8ced974dc46a0c7a4fac20a3a95/1A_S16_L003_R1_001.trim.srt.nodup.no_chrM_MT.tn5.fc.signal.bigwig" xlink:title="/costellolab/data3/sermare/ATAC_seq/atac/46e1c956&#45;3914&#45;4b73&#45;af06&#45;03cafb167c20/call&#45;macs2_signal_track/shard&#45;0/execution/glob&#45;8876d8ced974dc46a0c7a4fac20a3a95/1A_S16_L003_R1_001.trim.srt.nodup.no_chrM_MT.tn5.fc.signal.bigwig" target="blank">
<path fill="lightyellow" stroke="darkgrey" stroke-width="0.5" d="M620.667,-63C620.667,-63 585.333,-63 585.333,-63 580.667,-63 576,-58.3333 576,-53.6667 576,-53.6667 576,-44.3333 576,-44.3333 576,-39.6667 580.667,-35 585.333,-35 585.333,-35 620.667,-35 620.667,-35 625.333,-35 630,-39.6667 630,-44.3333 630,-44.3333 630,-53.6667 630,-53.6667 630,-58.3333 625.333,-63 620.667,-63"/>
<text text-anchor="middle" x="603" y="-51.8" font-family="Times,serif" font-size="9.00">BW</text>
<text text-anchor="middle" x="603" y="-41.8" font-family="Times,serif" font-size="9.00">FC</text>
</a>
</g>
</g>
<!-- &#45;8408257614897313588&#45;&gt;5070900776933635984 -->
<g id="edge7" class="edge"><title>&#45;8408257614897313588&#45;&gt;5070900776933635984</title>
<path fill="none" stroke="darkgrey" stroke-width="0.5" d="M539.046,-73.8886C548.884,-69.9994 560.511,-65.4025 571.08,-61.2243"/>
<polygon fill="darkgrey" stroke="darkgrey" points="571.844,-62.8039 575.851,-59.3382 570.557,-59.5491 571.844,-62.8039"/>
</g>
<!-- &#45;4687214027040191840 -->
<g id="node4" class="node"><title>&#45;4687214027040191840</title>
<g id="a_node4"><a xlink:href="/costellolab/data3/sermare/ATAC_seq/atac/46e1c956-3914-4b73-af06-03cafb167c20/call-macs2_signal_track/shard-0/execution/glob-7ab0340dfeb10ca109917cbdcc568548/1A_S16_L003_R1_001.trim.srt.nodup.no_chrM_MT.tn5.pval.signal.bigwig" xlink:title="/costellolab/data3/sermare/ATAC_seq/atac/46e1c956&#45;3914&#45;4b73&#45;af06&#45;03cafb167c20/call&#45;macs2_signal_track/shard&#45;0/execution/glob&#45;7ab0340dfeb10ca109917cbdcc568548/1A_S16_L003_R1_001.trim.srt.nodup.no_chrM_MT.tn5.pval.signal.bigwig" target="blank">
<path fill="lightyellow" stroke="darkgrey" stroke-width="0.5" d="M620.667,-98C620.667,-98 585.333,-98 585.333,-98 580.667,-98 576,-93.3333 576,-88.6667 576,-88.6667 576,-79.3333 576,-79.3333 576,-74.6667 580.667,-70 585.333,-70 585.333,-70 620.667,-70 620.667,-70 625.333,-70 630,-74.6667 630,-79.3333 630,-79.3333 630,-88.6667 630,-88.6667 630,-93.3333 625.333,-98 620.667,-98"/>
<text text-anchor="middle" x="603" y="-86.8" font-family="Times,serif" font-size="9.00">BW</text>
<text text-anchor="middle" x="603" y="-76.8" font-family="Times,serif" font-size="9.00">p&#45;val</text>
</a>
</g>
</g>
<!-- &#45;8408257614897313588&#45;&gt;&#45;4687214027040191840 -->
<g id="edge8" class="edge"><title>&#45;8408257614897313588&#45;&gt;&#45;4687214027040191840</title>
<path fill="none" stroke="darkgrey" stroke-width="0.5" d="M554.222,-83.4444C559.739,-83.5086 565.364,-83.574 570.724,-83.6363"/>
<polygon fill="darkgrey" stroke="darkgrey" points="570.964,-85.3891 575.984,-83.6975 571.005,-81.8894 570.964,-85.3891"/>
</g>
<!-- 7364876316270162335 -->
<g id="node7" class="node"><title>7364876316270162335</title>
<g id="a_node7"><a xlink:href="/costellolab/data3/sermare/ATAC_seq/atac/46e1c956-3914-4b73-af06-03cafb167c20/call-call_peak/shard-0/execution/glob-2e6c87fc90e45fa5dbda88934d454cd3/1A_S16_L003_R1_001.trim.srt.nodup.no_chrM_MT.tn5.pval0.01.300K.bfilt.narrowPeak.gz" xlink:title="/costellolab/data3/sermare/ATAC_seq/atac/46e1c956&#45;3914&#45;4b73&#45;af06&#45;03cafb167c20/call&#45;call_peak/shard&#45;0/execution/glob&#45;2e6c87fc90e45fa5dbda88934d454cd3/1A_S16_L003_R1_001.trim.srt.nodup.no_chrM_MT.tn5.pval0.01.300K.bfilt.narrowPeak.gz" target="blank">
<path fill="lightyellow" stroke="darkgrey" stroke-width="0.5" d="M620.667,-133C620.667,-133 585.333,-133 585.333,-133 580.667,-133 576,-128.333 576,-123.667 576,-123.667 576,-114.333 576,-114.333 576,-109.667 580.667,-105 585.333,-105 585.333,-105 620.667,-105 620.667,-105 625.333,-105 630,-109.667 630,-114.333 630,-114.333 630,-123.667 630,-123.667 630,-128.333 625.333,-133 620.667,-133"/>
<text text-anchor="middle" x="603" y="-121.8" font-family="Times,serif" font-size="9.00">Peak</text>
<text text-anchor="middle" x="603" y="-111.8" font-family="Times,serif" font-size="9.00">(bfilt)</text>
</a>
</g>
</g>
<!-- &#45;304987781103750817&#45;&gt;7364876316270162335 -->
<g id="edge9" class="edge"><title>&#45;304987781103750817&#45;&gt;7364876316270162335</title>
<path fill="none" stroke="darkgrey" stroke-width="0.5" d="M542.27,-119C551.273,-119 561.434,-119 570.789,-119"/>
<polygon fill="darkgrey" stroke="darkgrey" points="570.891,-120.75 575.891,-119 570.891,-117.25 570.891,-120.75"/>
</g>
<!-- &#45;1726757026783964877 -->
<g id="node8" class="node"><title>&#45;1726757026783964877</title>
<g id="a_node8"><a xlink:href="/costellolab/data3/sermare/ATAC_seq/atac/46e1c956-3914-4b73-af06-03cafb167c20/call-call_peak/shard-0/execution/glob-254907fcd430d7e6c9bf67ac4585adb4/1A_S16_L003_R1_001.trim.srt.nodup.no_chrM_MT.tn5.pval0.01.300K.narrowPeak.gz" xlink:title="/costellolab/data3/sermare/ATAC_seq/atac/46e1c956&#45;3914&#45;4b73&#45;af06&#45;03cafb167c20/call&#45;call_peak/shard&#45;0/execution/glob&#45;254907fcd430d7e6c9bf67ac4585adb4/1A_S16_L003_R1_001.trim.srt.nodup.no_chrM_MT.tn5.pval0.01.300K.narrowPeak.gz" target="blank">
<path fill="lightyellow" stroke="darkgrey" stroke-width="0.5" d="M624,-158C624,-158 582,-158 582,-158 579,-158 576,-155 576,-152 576,-152 576,-146 576,-146 576,-143 579,-140 582,-140 582,-140 624,-140 624,-140 627,-140 630,-143 630,-146 630,-146 630,-152 630,-152 630,-155 627,-158 624,-158"/>
<text text-anchor="middle" x="603" y="-146.8" font-family="Times,serif" font-size="9.00">Peak</text>
</a>
</g>
</g>
<!-- &#45;304987781103750817&#45;&gt;&#45;1726757026783964877 -->
<g id="edge10" class="edge"><title>&#45;304987781103750817&#45;&gt;&#45;1726757026783964877</title>
<path fill="none" stroke="darkgrey" stroke-width="0.5" d="M541.803,-128.001C550.988,-131.205 561.426,-134.846 571.001,-138.186"/>
<polygon fill="darkgrey" stroke="darkgrey" points="570.621,-139.907 575.918,-139.902 571.774,-136.602 570.621,-139.907"/>
</g>
<!-- &#45;1726757026783964877&#45;&gt;&#45;8267993548484073920 -->
<g id="edge11" class="edge"><title>&#45;1726757026783964877&#45;&gt;&#45;8267993548484073920</title>
<path fill="none" stroke="darkgrey" stroke-width="0.5" d="M630.401,-151.839C638.139,-152.671 646.797,-153.602 655.243,-154.51"/>
<polygon fill="darkgrey" stroke="darkgrey" points="655.307,-156.277 660.465,-155.072 655.681,-152.797 655.307,-156.277"/>
</g>
<!-- &#45;1726757026783964877&#45;&gt;770674250724286009 -->
<g id="edge12" class="edge"><title>&#45;1726757026783964877&#45;&gt;770674250724286009</title>
<path fill="none" stroke="darkgrey" stroke-width="0.5" d="M630.025,-140.762C632.835,-139.38 635.557,-137.799 638,-136 660.924,-119.119 679.657,-91.1066 689.496,-74.5135"/>
<polygon fill="darkgrey" stroke="darkgrey" points="691.03,-75.3568 692.032,-70.1549 688.005,-73.597 691.03,-75.3568"/>
</g>
<!-- &#45;1829474999434124016 -->
<g id="node9" class="node"><title>&#45;1829474999434124016</title>
<g id="a_node9"><a xlink:href="atac.filter" xlink:title="atac.filter" target="blank">
<polygon fill="lightcyan" stroke="darkgrey" stroke-width="0.5" points="222,-86 168,-86 168,-68 222,-68 222,-86"/>
<text text-anchor="middle" x="195" y="-74.8" font-family="Times,serif" font-size="9.00">filter</text>
</a>
</g>
</g>
<!-- 3195357194884662507 -->
<g id="node12" class="node"><title>3195357194884662507</title>
<g id="a_node12"><a xlink:href="/costellolab/data3/sermare/ATAC_seq/atac/46e1c956-3914-4b73-af06-03cafb167c20/call-filter/shard-0/execution/glob-57d0acc485690c2359d57a5a21e0aedb/1A_S16_L003_R1_001.trim.srt.lib_complexity.qc" xlink:title="/costellolab/data3/sermare/ATAC_seq/atac/46e1c956&#45;3914&#45;4b73&#45;af06&#45;03cafb167c20/call&#45;filter/shard&#45;0/execution/glob&#45;57d0acc485690c2359d57a5a21e0aedb/1A_S16_L003_R1_001.trim.srt.lib_complexity.qc" target="blank">
<ellipse fill="gainsboro" stroke="darkgrey" stroke-width="0.5" cx="271" cy="-46" rx="27" ry="9.8"/>
<text text-anchor="middle" x="271" y="-48.2" font-family="Times,serif" font-size="6.00">LibCmplx</text>
<text text-anchor="middle" x="271" y="-41.2" font-family="Times,serif" font-size="6.00">QC</text>
</a>
</g>
</g>
<!-- &#45;1829474999434124016&#45;&gt;3195357194884662507 -->
<g id="edge15" class="edge"><title>&#45;1829474999434124016&#45;&gt;3195357194884662507</title>
<path fill="none" stroke="darkgrey" stroke-width="0.5" d="M217.802,-67.8666C227.387,-63.8515 238.618,-59.1466 248.202,-55.1316"/>
<polygon fill="darkgrey" stroke="darkgrey" points="249.111,-56.6484 253.046,-53.1023 247.758,-53.4202 249.111,-56.6484"/>
</g>
<!-- 8747827563612458097 -->
<g id="node11" class="node"><title>8747827563612458097</title>
<g id="a_node11"><a xlink:href="/costellolab/data3/sermare/ATAC_seq/atac/46e1c956-3914-4b73-af06-03cafb167c20/call-filter/shard-0/execution/glob-3bcbe4e7489c90f75e0523ac6f3a9385/1A_S16_L003_R1_001.trim.srt.nodup.no_chrM_MT.bam" xlink:title="/costellolab/data3/sermare/ATAC_seq/atac/46e1c956&#45;3914&#45;4b73&#45;af06&#45;03cafb167c20/call&#45;filter/shard&#45;0/execution/glob&#45;3bcbe4e7489c90f75e0523ac6f3a9385/1A_S16_L003_R1_001.trim.srt.nodup.no_chrM_MT.bam" target="blank">
<path fill="lightyellow" stroke="darkgrey" stroke-width="0.5" d="M288.667,-91C288.667,-91 253.333,-91 253.333,-91 248.667,-91 244,-86.3333 244,-81.6667 244,-81.6667 244,-72.3333 244,-72.3333 244,-67.6667 248.667,-63 253.333,-63 253.333,-63 288.667,-63 288.667,-63 293.333,-63 298,-67.6667 298,-72.3333 298,-72.3333 298,-81.6667 298,-81.6667 298,-86.3333 293.333,-91 288.667,-91"/>
<text text-anchor="middle" x="271" y="-79.8" font-family="Times,serif" font-size="9.00">Filt/deduped</text>
<text text-anchor="middle" x="271" y="-69.8" font-family="Times,serif" font-size="9.00">BAM</text>
</a>
</g>
</g>
<!-- &#45;1829474999434124016&#45;&gt;8747827563612458097 -->
<g id="edge16" class="edge"><title>&#45;1829474999434124016&#45;&gt;8747827563612458097</title>
<path fill="none" stroke="darkgrey" stroke-width="0.5" d="M222.298,-77C227.532,-77 233.079,-77 238.468,-77"/>
<polygon fill="darkgrey" stroke="darkgrey" points="238.787,-78.7501 243.787,-77 238.787,-75.2501 238.787,-78.7501"/>
</g>
<!-- 790143761775991743 -->
<g id="node10" class="node"><title>790143761775991743</title>
<g id="a_node10"><a xlink:href="/costellolab/data3/sermare/ATAC_seq/atac/46e1c956-3914-4b73-af06-03cafb167c20/call-filter/shard-0/execution/glob-7b38d9959cf6f3deb83ac2bd156d8317/1A_S16_L003_R1_001.trim.srt.nodup.no_chrM_MT.samstats.qc" xlink:title="/costellolab/data3/sermare/ATAC_seq/atac/46e1c956&#45;3914&#45;4b73&#45;af06&#45;03cafb167c20/call&#45;filter/shard&#45;0/execution/glob&#45;7b38d9959cf6f3deb83ac2bd156d8317/1A_S16_L003_R1_001.trim.srt.nodup.no_chrM_MT.samstats.qc" target="blank">
<ellipse fill="gainsboro" stroke="darkgrey" stroke-width="0.5" cx="271" cy="-108" rx="27" ry="9.8"/>
<text text-anchor="middle" x="271" y="-110.2" font-family="Times,serif" font-size="6.00">SAMstats</text>
<text text-anchor="middle" x="271" y="-103.2" font-family="Times,serif" font-size="6.00">QC</text>
</a>
</g>
</g>
<!-- &#45;1829474999434124016&#45;&gt;790143761775991743 -->
<g id="edge17" class="edge"><title>&#45;1829474999434124016&#45;&gt;790143761775991743</title>
<path fill="none" stroke="darkgrey" stroke-width="0.5" d="M217.802,-86.1334C227.387,-90.1485 238.618,-94.8534 248.202,-98.8684"/>
<polygon fill="darkgrey" stroke="darkgrey" points="247.758,-100.58 253.046,-100.898 249.111,-97.3516 247.758,-100.58"/>
</g>
<!-- 8747827563612458097&#45;&gt;5055197247084690416 -->
<g id="edge18" class="edge"><title>8747827563612458097&#45;&gt;5055197247084690416</title>
<path fill="none" stroke="darkgrey" stroke-width="0.5" d="M298.298,-77.7108C303.532,-77.8522 309.079,-78.0021 314.468,-78.1478"/>
<polygon fill="darkgrey" stroke="darkgrey" points="314.741,-79.9057 319.787,-78.2915 314.836,-76.407 314.741,-79.9057"/>
</g>
<!-- 5404967095016506260 -->
<g id="node16" class="node"><title>5404967095016506260</title>
<g id="a_node16"><a xlink:href="atac.jsd" xlink:title="atac.jsd" target="blank">
<polygon fill="lightcyan" stroke="darkgrey" stroke-width="0.5" points="374,-18 320,-18 320,-0 374,-0 374,-18"/>
<text text-anchor="middle" x="347" y="-6.8" font-family="Times,serif" font-size="9.00">jsd</text>
</a>
</g>
</g>
<!-- 8747827563612458097&#45;&gt;5404967095016506260 -->
<g id="edge19" class="edge"><title>8747827563612458097&#45;&gt;5404967095016506260</title>
<path fill="none" stroke="darkgrey" stroke-width="0.5" d="M292.7,-62.8969C294.565,-61.327 296.364,-59.6841 298,-58 310.027,-45.6216 307.655,-38.0616 320,-26 321.741,-24.2992 323.676,-22.6699 325.682,-21.1395"/>
<polygon fill="darkgrey" stroke="darkgrey" points="326.816,-22.4802 329.862,-18.1463 324.778,-19.6345 326.816,-22.4802"/>
</g>
<!-- 5444415710582421663 -->
<g id="node13" class="node"><title>5444415710582421663</title>
<g id="a_node13"><a xlink:href="atac.align" xlink:title="atac.align" target="blank">
<polygon fill="lightcyan" stroke="darkgrey" stroke-width="0.5" points="70,-73 16,-73 16,-55 70,-55 70,-73"/>
<text text-anchor="middle" x="43" y="-61.8" font-family="Times,serif" font-size="9.00">align</text>
</a>
</g>
</g>
<!-- 4735669260119232961 -->
<g id="node14" class="node"><title>4735669260119232961</title>
<g id="a_node14"><a xlink:href="/costellolab/data3/sermare/ATAC_seq/atac/46e1c956-3914-4b73-af06-03cafb167c20/call-align/shard-0/execution/glob-7b38d9959cf6f3deb83ac2bd156d8317/1A_S16_L003_R1_001.trim.srt.samstats.qc" xlink:title="/costellolab/data3/sermare/ATAC_seq/atac/46e1c956&#45;3914&#45;4b73&#45;af06&#45;03cafb167c20/call&#45;align/shard&#45;0/execution/glob&#45;7b38d9959cf6f3deb83ac2bd156d8317/1A_S16_L003_R1_001.trim.srt.samstats.qc" target="blank">
<ellipse fill="gainsboro" stroke="darkgrey" stroke-width="0.5" cx="119" cy="-51" rx="27" ry="9.8"/>
<text text-anchor="middle" x="119" y="-53.2" font-family="Times,serif" font-size="6.00">SAMstats</text>
<text text-anchor="middle" x="119" y="-46.2" font-family="Times,serif" font-size="6.00">QC</text>
</a>
</g>
</g>
<!-- 5444415710582421663&#45;&gt;4735669260119232961 -->
<g id="edge22" class="edge"><title>5444415710582421663&#45;&gt;4735669260119232961</title>
<path fill="none" stroke="darkgrey" stroke-width="0.5" d="M70.298,-59.3801C76.3995,-58.3082 82.9259,-57.1617 89.1313,-56.0715"/>
<polygon fill="darkgrey" stroke="darkgrey" points="89.6302,-57.7608 94.2519,-55.172 89.0245,-54.3136 89.6302,-57.7608"/>
</g>
<!-- 2201708192412804201 -->
<g id="node15" class="node"><title>2201708192412804201</title>
<g id="a_node15"><a xlink:href="/costellolab/data3/sermare/ATAC_seq/atac/46e1c956-3914-4b73-af06-03cafb167c20/call-align/shard-0/execution/glob-3bcbe4e7489c90f75e0523ac6f3a9385/1A_S16_L003_R1_001.trim.srt.bam" xlink:title="/costellolab/data3/sermare/ATAC_seq/atac/46e1c956&#45;3914&#45;4b73&#45;af06&#45;03cafb167c20/call&#45;align/shard&#45;0/execution/glob&#45;3bcbe4e7489c90f75e0523ac6f3a9385/1A_S16_L003_R1_001.trim.srt.bam" target="blank">
<path fill="lightyellow" stroke="darkgrey" stroke-width="0.5" d="M140,-86C140,-86 98,-86 98,-86 95,-86 92,-83 92,-80 92,-80 92,-74 92,-74 92,-71 95,-68 98,-68 98,-68 140,-68 140,-68 143,-68 146,-71 146,-74 146,-74 146,-80 146,-80 146,-83 143,-86 140,-86"/>
<text text-anchor="middle" x="119" y="-74.8" font-family="Times,serif" font-size="9.00">BAM</text>
</a>
</g>
</g>
<!-- 5444415710582421663&#45;&gt;2201708192412804201 -->
<g id="edge23" class="edge"><title>5444415710582421663&#45;&gt;2201708192412804201</title>
<path fill="none" stroke="darkgrey" stroke-width="0.5" d="M70.298,-68.6199C75.6414,-69.5586 81.3106,-70.5546 86.8047,-71.5197"/>
<polygon fill="darkgrey" stroke="darkgrey" points="86.5593,-73.2534 91.7867,-72.395 87.1649,-69.8061 86.5593,-73.2534"/>
</g>
<!-- 2201708192412804201&#45;&gt;&#45;1829474999434124016 -->
<g id="edge24" class="edge"><title>2201708192412804201&#45;&gt;&#45;1829474999434124016</title>
<path fill="none" stroke="darkgrey" stroke-width="0.5" d="M146.298,-77C151.532,-77 157.079,-77 162.468,-77"/>
<polygon fill="darkgrey" stroke="darkgrey" points="162.787,-78.7501 167.787,-77 162.787,-75.2501 162.787,-78.7501"/>
</g>
<!-- 5980485236376481375 -->
<g id="node17" class="node"><title>5980485236376481375</title>
<g id="a_node17"><a xlink:href="/costellolab/data3/sermare/ATAC_seq/atac/46e1c956-3914-4b73-af06-03cafb167c20/call-jsd/execution/glob-fc36854b6867c1581ab159b09dd7e2f4/1A_S16_L003_R1_001.trim.srt.nodup.no_chrM_MT.jsd_plot.png" xlink:title="/costellolab/data3/sermare/ATAC_seq/atac/46e1c956&#45;3914&#45;4b73&#45;af06&#45;03cafb167c20/call&#45;jsd/execution/glob&#45;fc36854b6867c1581ab159b09dd7e2f4/1A_S16_L003_R1_001.trim.srt.nodup.no_chrM_MT.jsd_plot.png" target="blank">
<ellipse fill="gainsboro" stroke="darkgrey" stroke-width="0.5" cx="425" cy="-9" rx="27" ry="9.8"/>
<text text-anchor="middle" x="425" y="-11.2" font-family="Times,serif" font-size="6.00">JSD</text>
<text text-anchor="middle" x="425" y="-4.2" font-family="Times,serif" font-size="6.00">Plot</text>
</a>
</g>
</g>
<!-- 5404967095016506260&#45;&gt;5980485236376481375 -->
<g id="edge6" class="edge"><title>5404967095016506260&#45;&gt;5980485236376481375</title>
<path fill="none" stroke="darkgrey" stroke-width="0.5" d="M374.155,-9C380.126,-9 386.53,-9 392.693,-9"/>
<polygon fill="darkgrey" stroke="darkgrey" points="392.797,-10.7501 397.797,-9 392.797,-7.2501 392.797,-10.7501"/>
</g>
<!-- 4979666809573909958 -->
<g id="node20" class="node"><title>4979666809573909958</title>
<g id="a_node20"><a xlink:href="/costellolab/data3/sermare/ATAC_seq/atac/46e1c956-3914-4b73-af06-03cafb167c20/call-reproducibility_overlap/execution/glob-2e0755477c7b64fb4cd35cd75c0b0f2a/overlap.reproducibility.qc" xlink:title="/costellolab/data3/sermare/ATAC_seq/atac/46e1c956&#45;3914&#45;4b73&#45;af06&#45;03cafb167c20/call&#45;reproducibility_overlap/execution/glob&#45;2e0755477c7b64fb4cd35cd75c0b0f2a/overlap.reproducibility.qc" target="blank">
<ellipse fill="gainsboro" stroke="darkgrey" stroke-width="0.5" cx="795" cy="-77" rx="27" ry="9.8"/>
<text text-anchor="middle" x="795" y="-79.2" font-family="Times,serif" font-size="6.00">Overlap</text>
<text text-anchor="middle" x="795" y="-72.2" font-family="Times,serif" font-size="6.00">reproducibility</text>
</a>
</g>
</g>
<!-- 770674250724286009&#45;&gt;4979666809573909958 -->
<g id="edge13" class="edge"><title>770674250724286009&#45;&gt;4979666809573909958</title>
<path fill="none" stroke="darkgrey" stroke-width="0.5" d="M743.718,-68.5315C751.081,-69.7716 758.534,-71.0268 765.365,-72.1773"/>
<polygon fill="darkgrey" stroke="darkgrey" points="765.235,-73.9299 770.456,-73.0347 765.816,-70.4785 765.235,-73.9299"/>
</g>
<!-- &#45;8660112306350725620 -->
<g id="node19" class="node"><title>&#45;8660112306350725620</title>
<g id="a_node19"><a xlink:href="/costellolab/data3/sermare/ATAC_seq/atac/46e1c956-3914-4b73-af06-03cafb167c20/call-reproducibility_overlap/execution/glob-1b1244d5baf1a7d98d4b7b76d79e43bf/overlap.optimal_peak.narrowPeak.gz" xlink:title="/costellolab/data3/sermare/ATAC_seq/atac/46e1c956&#45;3914&#45;4b73&#45;af06&#45;03cafb167c20/call&#45;reproducibility_overlap/execution/glob&#45;1b1244d5baf1a7d98d4b7b76d79e43bf/overlap.optimal_peak.narrowPeak.gz" target="blank">
<path fill="lightyellow" stroke="darkgrey" stroke-width="0.5" d="M814.167,-60C814.167,-60 775.833,-60 775.833,-60 771.167,-60 766.5,-55.3333 766.5,-50.6667 766.5,-50.6667 766.5,-41.3333 766.5,-41.3333 766.5,-36.6667 771.167,-32 775.833,-32 775.833,-32 814.167,-32 814.167,-32 818.833,-32 823.5,-36.6667 823.5,-41.3333 823.5,-41.3333 823.5,-50.6667 823.5,-50.6667 823.5,-55.3333 818.833,-60 814.167,-60"/>
<text text-anchor="middle" x="795" y="-48.8" font-family="Times,serif" font-size="9.00">Overlap Peak</text>
<text text-anchor="middle" x="795" y="-38.8" font-family="Times,serif" font-size="9.00">optimal</text>
</a>
</g>
</g>
<!-- 770674250724286009&#45;&gt;&#45;8660112306350725620 -->
<g id="edge14" class="edge"><title>770674250724286009&#45;&gt;&#45;8660112306350725620</title>
<path fill="none" stroke="darkgrey" stroke-width="0.5" d="M743.718,-53.9392C749.614,-53.0084 755.566,-52.0685 761.211,-51.1772"/>
<polygon fill="darkgrey" stroke="darkgrey" points="761.633,-52.8824 766.299,-50.3739 761.087,-49.4252 761.633,-52.8824"/>
</g>
<!-- &#45;2165641183761141678 -->
<g id="node23" class="node"><title>&#45;2165641183761141678</title>
<g id="a_node23"><a xlink:href="/costellolab/data3/sermare/ATAC_seq/atac/46e1c956-3914-4b73-af06-03cafb167c20/call-reproducibility_idr/execution/glob-2e0755477c7b64fb4cd35cd75c0b0f2a/idr.reproducibility.qc" xlink:title="/costellolab/data3/sermare/ATAC_seq/atac/46e1c956&#45;3914&#45;4b73&#45;af06&#45;03cafb167c20/call&#45;reproducibility_idr/execution/glob&#45;2e0755477c7b64fb4cd35cd75c0b0f2a/idr.reproducibility.qc" target="blank">
<ellipse fill="gainsboro" stroke="darkgrey" stroke-width="0.5" cx="795" cy="-175" rx="27" ry="9.8"/>
<text text-anchor="middle" x="795" y="-177.2" font-family="Times,serif" font-size="6.00">IDR</text>
<text text-anchor="middle" x="795" y="-170.2" font-family="Times,serif" font-size="6.00">reproducibility</text>
</a>
</g>
</g>
<!-- &#45;8267993548484073920&#45;&gt;&#45;2165641183761141678 -->
<g id="edge20" class="edge"><title>&#45;8267993548484073920&#45;&gt;&#45;2165641183761141678</title>
<path fill="none" stroke="darkgrey" stroke-width="0.5" d="M735.729,-165.186C745.51,-166.833 755.933,-168.589 765.219,-170.153"/>
<polygon fill="darkgrey" stroke="darkgrey" points="765.029,-171.895 770.251,-171 765.611,-168.444 765.029,-171.895"/>
</g>
<!-- 1925441941087485724 -->
<g id="node22" class="node"><title>1925441941087485724</title>
<g id="a_node22"><a xlink:href="/costellolab/data3/sermare/ATAC_seq/atac/46e1c956-3914-4b73-af06-03cafb167c20/call-reproducibility_idr/execution/glob-1b1244d5baf1a7d98d4b7b76d79e43bf/idr.optimal_peak.narrowPeak.gz" xlink:title="/costellolab/data3/sermare/ATAC_seq/atac/46e1c956&#45;3914&#45;4b73&#45;af06&#45;03cafb167c20/call&#45;reproducibility_idr/execution/glob&#45;1b1244d5baf1a7d98d4b7b76d79e43bf/idr.optimal_peak.narrowPeak.gz" target="blank">
<path fill="lightyellow" stroke="darkgrey" stroke-width="0.5" d="M812.667,-158C812.667,-158 777.333,-158 777.333,-158 772.667,-158 768,-153.333 768,-148.667 768,-148.667 768,-139.333 768,-139.333 768,-134.667 772.667,-130 777.333,-130 777.333,-130 812.667,-130 812.667,-130 817.333,-130 822,-134.667 822,-139.333 822,-139.333 822,-148.667 822,-148.667 822,-153.333 817.333,-158 812.667,-158"/>
<text text-anchor="middle" x="795" y="-146.8" font-family="Times,serif" font-size="9.00">IDR Peak</text>
<text text-anchor="middle" x="795" y="-136.8" font-family="Times,serif" font-size="9.00">optimal</text>
</a>
</g>
</g>
<!-- &#45;8267993548484073920&#45;&gt;1925441941087485724 -->
<g id="edge21" class="edge"><title>&#45;8267993548484073920&#45;&gt;1925441941087485724</title>
<path fill="none" stroke="darkgrey" stroke-width="0.5" d="M735.729,-153.201C744.637,-151.794 754.077,-150.304 762.707,-148.941"/>
<polygon fill="darkgrey" stroke="darkgrey" points="763.297,-150.62 767.963,-148.111 762.752,-147.162 763.297,-150.62"/>
</g>
</g>
</svg>
